<?xml version="1.0" encoding="UTF-8"?>
<svg width="300px" height="227px" viewBox="0 0 300 227" version="1.1" xmlns="http://www.w3.org/2000/svg" xmlns:xlink="http://www.w3.org/1999/xlink">
    <!-- Generator: Sketch 49 (51002) - http://www.bohemiancoding.com/sketch -->
    <title>FBlogo</title>
    <desc>Created with Sketch.</desc>
    <defs></defs>
    <g id="Page-1" stroke="none" stroke-width="1" fill="none" fill-rule="evenodd">
        <g id="Intro" transform="translate(-226.000000, -234.000000)">
            <g id="Group-2" transform="translate(162.000000, 172.000000)">
                <g id="FBlogo" transform="translate(64.000000, 62.000000)">
                    <g id="Shape">
                        <path d="M152.520968,90.0039632 C173.874633,30.8539981 115.562023,20.4725899 91.9693548,0.361355899 C88.9130499,50.1208975 124.625806,90.7525803 152.520968,90.0039632 Z" fill="#62BB46" fill-rule="nonzero"></path>
                        <path d="M211.556305,39.8848221 C194.864956,49.578205 157.995308,49.4543868 164.47522,88.0522901 C181.474047,91.6109652 207.878886,70.6975474 211.556305,39.8848221 Z" fill="#62BB46" fill-rule="nonzero"></path>
                        <path d="M74.0564516,195.868509 C73.3464809,195.594967 68.6423754,195.552377 65.7382698,195.746008 L65.7382698,200.509934 C68.6423754,200.834408 74.6604106,200.773816 74.7686217,200.318938 C74.8772727,199.868451 74.9630499,199.082074 75.0255132,197.960685 C75.0884164,196.841052 74.7659824,196.144246 74.0564516,195.868509 Z" fill="#82B850" fill-rule="nonzero"></path>
                        <path d="M116.364809,131.466809 C117.03915,130.01875 117.177273,128.641822 116.782258,127.33734 C116.385044,126.03725 115.490762,125.2096 114.098974,124.866685 C112.706305,124.522453 108.966862,124.884248 102.884604,125.94724 L104.716276,134.300137 C111.805865,133.861066 115.690469,132.919257 116.364809,131.466809 Z" fill="#82B850" fill-rule="nonzero"></path>
                        <path d="M72.161437,187.276317 C73.0262463,187.091468 73.5765396,186.691035 73.6944282,186.074139 C73.811437,185.460317 74.0146628,184.802588 74.0692082,184.105781 C74.1241935,183.40634 74.1620235,182.926435 73.4604106,182.65948 C72.7596774,182.392524 68.6428152,182.353008 65.7387097,182.547956 L65.7387097,187.311443 L68.3010264,187.400135 C70.3895894,187.501122 71.2961877,187.462923 72.161437,187.276317 Z" fill="#82B850" fill-rule="nonzero"></path>
                        <polygon fill="#82B850" fill-rule="nonzero" points="98.9678886 194.850741 108.270528 194.850741 104.179619 183.298768"></polygon>
                        <path d="M0.289002933,96.2870774 L6.1983871,119.478398 L16.4384164,119.478398 L41.6173021,226.737874 L258.548094,226.737874 L283.72478,119.478398 L294.119208,119.478398 L299.634897,96.2870774 L0.289002933,96.2870774 Z M138.343988,118.564251 L162.811144,113.680458 L163.101906,113.680458 L166.76305,128.175528 L166.474487,128.175528 L147.580205,128.175528 L147.612757,134.452934 L162.651466,133.973029 L164.483578,133.973029 L164.483578,145.568031 L162.651466,145.568031 L147.057625,146.31094 L147.057625,153.475271 L165.897801,154.263843 L166.153372,154.263843 L166.474487,160.062222 L166.218475,160.062222 L141.597801,165.621747 C138.618915,134.795849 138.343988,119.470934 138.343988,119.096845 C138.343988,118.80135 138.343988,118.627917 138.343988,118.564251 Z M117.15176,112.996824 C120.086657,113.515368 122.40044,114.838729 124.092669,116.951542 C125.784018,119.070062 127.05,121.657072 127.884018,124.709058 C128.718915,127.766313 128.407918,130.671211 126.951906,133.42375 C125.495455,136.176729 123.855132,138.165284 122.036217,139.398636 L133.571701,162.046387 L121.778446,165.768397 L113.714076,144.779019 L105.71393,146.436075 L106.452053,167.551905 L91.222434,165.830745 L90.0655425,121.129747 C105.18607,115.185596 114.215543,112.474329 117.15176,112.996824 Z M45.4077713,117.43935 C45.4077713,117.167126 45.4077713,116.912025 45.4077713,116.670975 C45.4077713,116.434315 45.4077713,116.219609 45.4077713,116.031687 L45.4077713,115.531145 L77.3560117,118.377207 L77.3560117,132.422667 L56.9472141,129.638075 C56.9890029,132.596101 58.6205279,135.913725 58.6205279,136.226344 L75.468915,136.164874 L75.6624633,145.485925 L58.8804985,145.54959 L62.8346041,162.890721 L62.8346041,163.421998 L45.4082111,163.579186 L45.4082111,163.109379 L45.4082111,117.43935 L45.4077713,117.43935 Z M81.0193548,200.384799 C80.9252199,204.519536 77.6564516,207.034099 71.2139296,207.930683 C64.7705279,208.830779 59.4615836,208.061526 55.2866569,205.62907 L56.0335777,176.6723 C62.1888563,174.904159 67.0966276,174.278043 70.7577713,174.788683 C74.4202346,175.301518 76.7714076,175.957052 77.8174487,176.74782 C78.8604106,177.54254 79.6513196,178.341211 80.1884164,179.141638 C80.7268328,179.943383 80.9529326,181.564435 80.8667155,184.003478 C80.7796188,186.445594 79.3904692,188.601874 76.694868,190.471002 C78.8753666,191.345193 80.1646628,192.184698 80.5627566,192.986443 C80.9599707,193.787749 81.1112903,196.25577 81.0193548,200.384799 Z M111.237977,204.060267 L109.741935,197.749052 L97.3077713,197.749052 L95.1343109,203.547431 L85.8101173,203.547431 L94.7375367,178.012346 L109.251906,176.475157 L125.074047,197.984834 L111.237977,204.060267 Z M151.653519,208.077772 C150.967302,210.48125 149.631818,212.270905 147.644868,213.450251 C145.657478,214.630476 143.503812,215.256153 141.182991,215.33299 C138.86085,215.405437 136.594575,214.665162 134.381965,213.107337 C132.168475,211.548632 130.697067,208.188418 129.963343,203.024936 L137.536804,200.732104 C137.66173,204.232383 138.377859,206.37593 139.68695,207.164503 C140.995601,207.948685 142.094428,206.9296 142.982991,204.102418 C143.871114,201.274797 143.053812,199.450455 140.528006,198.626317 C138.004839,197.803058 136.23563,197.242364 135.22346,196.948625 C134.210411,196.648739 132.830938,195.781133 131.086364,194.343174 C129.341349,192.903458 128.331378,190.160139 128.060411,186.107948 C127.786804,182.057952 128.487977,178.973474 130.16305,176.859344 C131.838123,174.744337 134.673607,173.323062 138.670381,172.598155 C142.666276,171.869735 145.57654,172.509462 147.398974,174.512068 C149.221848,176.514673 150.296921,178.985329 150.624633,181.923157 C150.655865,182.145766 150.685777,182.35213 150.718328,182.547077 C150.733724,182.636209 150.74956,182.693288 150.764516,182.724901 L141.416569,184.194035 C141.276686,181.15083 140.492815,179.706723 139.067155,179.863472 C137.641935,180.019342 136.710704,180.817574 136.27346,182.25729 C135.837537,183.694371 135.693255,184.925528 135.841935,185.939783 C135.990176,186.957112 136.620528,187.85677 137.734751,188.646221 C138.848974,189.430402 140.074927,190.053884 141.416569,190.515787 C142.756012,190.9733 144.18563,191.647275 145.705425,192.527613 C147.22478,193.412781 148.459091,194.43977 149.409677,195.61253 C150.358504,196.782656 151.141935,198.55387 151.757771,200.919588 C152.373607,203.288818 152.338856,205.673855 151.653519,208.077772 Z M179.456305,208.723646 L167.860557,198.484058 L167.387683,198.751892 L167.387683,210.25864 L158.395161,211.107805 L158.331818,170.579743 L167.879472,170.65175 L166.08651,185.474368 L175.883138,174.55817 L190.622727,174.55817 L190.622727,177.117518 L171.665103,192.252754 L189.468475,202.556886 L179.456305,208.723646 Z M182.298827,167.410085 C179.255718,165.219996 177.231818,160.496903 176.224487,153.239489 L186.63563,150.017582 C186.807625,154.937818 187.793842,157.949849 189.592962,159.058066 C191.392082,160.161453 192.902199,158.727006 194.124194,154.754725 C195.343548,150.781567 194.220088,148.216511 190.749413,147.059557 C187.277859,145.901286 184.847067,145.114909 183.455279,144.699108 C182.06349,144.279356 180.166276,143.060054 177.767595,141.039886 C175.369355,139.015327 173.981965,135.158083 173.607185,129.465081 C173.230205,123.772079 174.196628,119.438004 176.498974,116.466807 C178.79868,113.494292 182.7,111.496077 188.195015,110.477431 C193.68783,109.453516 197.689003,110.352296 200.195894,113.168062 C202.702786,115.983828 204.180792,119.455567 204.630792,123.583718 C204.671701,123.897654 204.714809,124.187441 204.760117,124.460104 C204.780352,124.585679 204.801026,124.666468 204.823021,124.711253 L191.970528,126.775329 C191.777859,122.498772 190.701466,120.469383 188.740909,120.688919 C186.780352,120.907576 185.501173,122.029404 184.899413,124.053524 C184.300293,126.074132 184.101466,127.802756 184.307771,129.227983 C184.510557,130.658039 185.376686,131.923443 186.909238,133.03166 C188.440029,134.135046 190.12654,135.010994 191.970528,135.658186 C193.812317,136.302304 195.776833,137.249381 197.866716,138.487563 C199.953959,139.729696 201.650587,141.173803 202.958358,142.822516 C204.266129,144.466839 205.340762,146.955936 206.187977,150.280586 C207.035191,153.609188 206.985924,156.961499 206.044575,160.340155 C205.099707,163.717932 203.265396,166.23513 200.533284,167.891308 C197.803372,169.549681 194.840323,170.430458 191.649413,170.536275 C188.457185,170.642091 185.340176,169.600174 182.298827,167.410085 Z M217.059677,183.253983 L203.317302,183.253983 L203.32566,187.776859 L213.855572,187.496731 L213.855572,189.052801 L214.279179,189.052801 L213.855572,187.496731 L213.855572,196.575414 L214.279179,194.850741 L213.855572,194.850741 L213.855572,196.575414 L202.23915,195.635362 L202.23915,200.732104 L216.63871,197.748613 L216.826979,197.748613 L217.060117,203.312089 L217.271261,206.216986 L199.277859,210.825043 C197.112757,188.891662 196.430938,176.537944 196.430938,176.271427 C196.430938,176.061112 196.430938,175.936416 196.430938,175.892509 L214.396188,168.759791 L214.606891,168.759791 L217.271701,183.253983 L217.059677,183.253983 Z M248.706598,186.15405 L239.081085,186.15405 L239.994282,210.548427 L239.994282,210.859729 L231.279765,213.197785 L231.279765,212.862335 L231.365543,185.842309 L222.569648,185.686878 L222.569648,176.982723 L248.706598,174.758387 L248.706598,186.15405 Z M241.053959,162.435843 L238.739296,144.072992 L228.201466,144.136658 L230.129032,163.194998 L215.508651,160.801619 L215.4761,116.580087 L227.348094,116.580087 L228.201466,132.897743 L238.739296,132.956578 C238.739296,132.394567 237.990176,125.661404 236.492375,118.029462 L250.031965,118.220897 L255.803666,161.167366 L241.053959,162.435843 Z" fill="#62BB46" fill-rule="nonzero"></path>
                    </g>
                </g>
            </g>
        </g>
    </g>
</svg>